<?xml version="1.0" encoding="UTF-8"?>
<svg version="1.1" xmlns="http://www.w3.org/2000/svg" width="283" height="256">
<path d="M0 0 C6.95777609 5.25221734 11.86258447 12.63852957 16.99609375 19.5859375 C19.5292973 23.00361905 22.14693938 26.35132727 24.78125 29.69140625 C25.24031738 30.2740625 25.69938477 30.85671875 26.17236328 31.45703125 C28.05826076 33.84806811 29.9469656 36.23685918 31.83837891 38.62353516 C34.61990394 42.13389377 37.38301473 45.6573952 40.12939453 49.1953125 C41.34170789 50.73446368 42.58990442 52.24515123 43.83984375 53.75390625 C48.75962435 59.92774857 51.14043778 64.81139105 50.40625 72.81640625 C49.02280752 79.88733446 46.22156749 84.70491814 40.40625 89.06640625 C35.2251824 92.08869568 30.39145602 92.67149967 24.421875 91.390625 C13.93730254 88.07863796 8.50657741 78.00852999 2.55029297 69.45214844 C1.03157199 67.28069505 -0.5199132 65.13570475 -2.09375 63.00390625 C-2.5371875 62.39933594 -2.980625 61.79476562 -3.4375 61.171875 C-4.57002214 59.66566699 -4.57002214 59.66566699 -6.59375 58.81640625 C-6.5230127 59.3997876 -6.45227539 59.98316895 -6.37939453 60.58422852 C-5.10706125 71.96926348 -5.46312919 83.3786335 -5.59375 94.81640625 C-5.60100098 96.04020996 -5.60825195 97.26401367 -5.61572266 98.52490234 C-5.64399015 102.16470126 -5.70772196 105.80226827 -5.78125 109.44140625 C-5.78970947 111.11964478 -5.78970947 111.11964478 -5.79833984 112.83178711 C-5.98739569 119.70099021 -6.99427888 124.56009586 -11.59375 129.81640625 C-17.11846315 134.88632049 -22.19927953 135.48813882 -29.6015625 135.171875 C-35.88602718 134.42528716 -39.58177623 131.56742782 -43.59375 126.81640625 C-47.60335956 120.73285781 -48.1717827 115.37461431 -48.11132812 108.21289062 C-48.1183374 107.1809407 -48.12534668 106.14899078 -48.13256836 105.08576965 C-48.1500929 101.69362025 -48.13854471 98.30231332 -48.125 94.91015625 C-48.12769649 92.54178712 -48.13158022 90.17341907 -48.13659668 87.80505371 C-48.14248425 82.84893216 -48.13395228 77.89309959 -48.11523438 72.93701172 C-48.09244575 66.59516139 -48.10557274 60.25398828 -48.12952423 53.91216278 C-48.14400196 49.02385385 -48.13936705 44.13570457 -48.12901306 39.24739075 C-48.12635126 36.90948913 -48.12959622 34.57157285 -48.13893127 32.23368835 C-48.14912898 28.9620442 -48.13354945 25.69148552 -48.11132812 22.41992188 C-48.11942505 21.46072342 -48.12752197 20.50152496 -48.13586426 19.51325989 C-48.04615257 12.35695052 -46.32697934 7.18818481 -41.8046875 1.609375 C-29.60795069 -9.05628209 -13.26709284 -8.49667211 0 0 Z " fill="#23BDFD" transform="translate(122.59375,69.18359375)"/>
<path d="M0 0 C5.283955 4.13460519 8.53649305 8.79620935 9.46569824 15.5993042 C9.93209643 21.61031122 9.83727731 27.63207715 9.78125 33.65625 C9.77953607 35.61340257 9.77960744 37.57055744 9.78137207 39.52770996 C9.77972455 43.61619229 9.76113147 47.70412254 9.72949219 51.79248047 C9.68981691 57.01079702 9.68545078 62.22839196 9.69295502 67.44683075 C9.696037 71.48425812 9.68386061 75.52152586 9.66682434 79.55891418 C9.65983559 81.4820709 9.65666475 83.40524569 9.65751648 85.32841492 C9.64191351 108.50770354 9.64191351 108.50770354 3.25 117.375 C2.72148437 118.10976562 2.19296875 118.84453125 1.6484375 119.6015625 C1.16632813 120.24867188 0.68421875 120.89578125 0.1875 121.5625 C-0.410625 122.449375 -1.00875 123.33625 -1.625 124.25 C-8.97399098 132.01893333 -19.62756875 137.16314056 -30.2824707 137.75537109 C-33.80497675 137.82711256 -37.32628682 137.88440388 -40.84936523 137.91259766 C-42.36124074 137.92914216 -43.8730385 137.95641313 -45.38452148 137.99462891 C-61.63327281 138.4022211 -61.63327281 138.4022211 -67.8125 132.5625 C-72.40035018 127.85391692 -73.89012934 123.16026801 -74.1875 116.6875 C-74.07184895 111.56801361 -72.8008637 107.72314785 -69.8125 103.5625 C-65.44344332 99.5055188 -62.92081759 98.49385929 -56.99731445 98.32421875 C-46.6639333 98.24601798 -46.6639333 98.24601798 -37.8125 93.5625 C-32.17672925 86.89184214 -30.663698 81.51794734 -30.74658203 72.84790039 C-30.75125488 72.19356522 -30.75592773 71.53923004 -30.76074219 70.86506653 C-30.77120278 69.45133331 -30.78385132 68.03761492 -30.79846573 66.62391853 C-30.8205811 64.38293834 -30.83459992 62.14204386 -30.84616089 59.90098572 C-30.87966803 53.5316094 -30.92135389 47.16237527 -30.98388672 40.79321289 C-31.02162463 36.89062803 -31.04458376 32.98818758 -31.05819321 29.08544731 C-31.06622329 27.60271611 -31.07979792 26.12000377 -31.09912491 24.63737679 C-31.1257335 22.56023632 -31.13350826 20.48378447 -31.13720703 18.40649414 C-31.14688507 17.22688614 -31.15656311 16.04727814 -31.16653442 14.83192444 C-30.42399823 7.97477779 -26.88712966 4.22777646 -21.78125 0.046875 C-14.98417418 -5.07790439 -7.1782729 -4.23026767 0 0 Z " fill="#21B7FD" transform="translate(208.8125,66.4375)"/>
<path d="M0 0 C0.66 0 1.32 0 2 0 C2.52520426 7.67381782 2.12839556 14.31994305 -2 21 C-6.2046058 25.24362766 -10.35924175 26.79686475 -16.25 27.25 C-23.49658861 26.76689409 -28.44366452 24.44113924 -33.39453125 19.09375 C-37.48258619 13.76236934 -40.46633982 7.75969566 -41 1 C-36.57715369 1.39314189 -33.1504655 2.31492563 -29.0625 4.0625 C-24.16157498 5.92498745 -19.8087622 6.40850076 -14.625 6.4375 C-13.94703369 6.44724854 -13.26906738 6.45699707 -12.57055664 6.46704102 C-8.22870827 6.39328612 -5.44035471 5.65845591 -2 3 C-1.34 2.01 -0.68 1.02 0 0 Z " fill="#209AE6" transform="translate(169,134)"/>
<path d="M0 0 C2.77487427 1.97721878 4.9914365 4.04680511 7.2421875 6.59765625 C6.9121875 7.25765625 6.5821875 7.91765625 6.2421875 8.59765625 C4.73647093 7.48031896 3.23774458 6.3535559 1.7421875 5.22265625 C0.906875 4.59617187 0.0715625 3.9696875 -0.7890625 3.32421875 C-1.76359375 2.46957031 -1.76359375 2.46957031 -2.7578125 1.59765625 C-2.7578125 0.93765625 -2.7578125 0.27765625 -2.7578125 -0.40234375 C-11.9805754 -2.99118948 -22.82278994 -4.45203024 -31.7578125 -0.40234375 C-32.4178125 -0.40234375 -33.0778125 -0.40234375 -33.7578125 -0.40234375 C-35.66060357 1.09994217 -35.66060357 1.09994217 -37.6328125 3.09765625 C-38.31085938 3.74734375 -38.98890625 4.39703125 -39.6875 5.06640625 C-45.18457133 11.78735383 -46.33974468 17.68161343 -46.21191406 26.23632812 C-46.21249817 27.27137482 -46.21308228 28.30642151 -46.21368408 29.37283325 C-46.21091238 32.7710401 -46.17986259 36.1683539 -46.1484375 39.56640625 C-46.14097189 41.93151368 -46.13528047 44.29662732 -46.13128662 46.66174316 C-46.11605567 52.86951953 -46.07679521 59.07691818 -46.0324707 65.2845459 C-45.9914635 71.62584321 -45.97326394 77.9672019 -45.953125 84.30859375 C-45.91029893 96.73844668 -45.84207798 109.16801999 -45.7578125 121.59765625 C-47.83931471 118.47540294 -48.00991292 117.77627969 -48.02523804 114.22859192 C-48.03376801 113.33571472 -48.04229797 112.44283752 -48.05108643 111.52290344 C-48.05018005 110.54572861 -48.04927368 109.56855377 -48.04833984 108.56176758 C-48.05505707 107.53054779 -48.06177429 106.499328 -48.06869507 105.43685913 C-48.08773727 102.01775326 -48.09160285 98.59884315 -48.09375 95.1796875 C-48.10017515 92.80417296 -48.1069033 90.42865922 -48.11392212 88.05314636 C-48.12591156 83.06723192 -48.12960138 78.08138683 -48.12841797 73.09545898 C-48.12821504 66.71427973 -48.15548289 60.33354716 -48.18996239 53.95247364 C-48.21223268 49.04273956 -48.21625541 44.13311278 -48.21519852 39.22333336 C-48.21755559 36.87146151 -48.22638505 34.51958676 -48.24186325 32.16776466 C-48.2615187 28.87170095 -48.25568544 25.57659767 -48.24365234 22.28051758 C-48.25489136 21.3134639 -48.26613037 20.34641022 -48.27770996 19.35005188 C-48.21119972 12.15928063 -46.51244726 6.99584105 -41.96875 1.390625 C-29.52744396 -9.48890007 -13.43094905 -8.51463592 0 0 Z " fill="#7ECDEE" transform="translate(122.7578125,69.40234375)"/>
<path d="M0 0 C5.29071873 4.14220264 8.55475153 8.79244565 9.45967865 15.61435318 C9.90548598 21.68017103 9.7863638 27.75497037 9.7109375 33.83203125 C9.70413825 35.80115671 9.69942198 37.77029036 9.69668579 39.73942566 C9.68333527 44.89817152 9.63912589 50.05621963 9.58911133 55.21472168 C9.55362507 59.42895904 9.54061516 63.64312739 9.52869225 67.85748768 C9.51389996 72.89071212 9.48870916 77.92386358 9.4609375 82.95703125 C9.45357134 84.39254806 9.45357134 84.39254806 9.44605637 85.8570652 C9.42975119 88.56600473 9.40634832 91.2747805 9.38037109 93.98364258 C9.37611115 94.78217148 9.3718512 95.58070038 9.36746216 96.40342712 C9.32294292 100.24057861 9.11457707 103.83131776 8.1875 107.5625 C7.8575 107.5625 7.5275 107.5625 7.1875 107.5625 C7.20082367 105.83481888 7.20082367 105.83481888 7.2144165 104.07223511 C7.29553038 93.2136444 7.35547899 82.35511523 7.39474869 71.49629021 C7.41561644 65.91373942 7.44391969 60.33143337 7.48925781 54.74902344 C7.53274388 49.36088788 7.55664322 43.97298761 7.56700897 38.58469009 C7.57439533 36.52978944 7.58881919 34.47490155 7.61042023 32.42010117 C7.63949056 29.54003906 7.64345444 26.66094712 7.64160156 23.78076172 C7.65598267 22.93271469 7.67036377 22.08466766 7.68518066 21.21092224 C7.64753164 15.79659977 6.62271087 12.94798874 3.1875 8.5625 C2.878125 7.675625 2.56875 6.78875 2.25 5.875 C0.7347817 2.57717194 -0.41003648 1.88182259 -3.8125 0.5625 C-10.06297517 -0.13305593 -15.50976126 -0.13708517 -20.8125 3.5625 C-24.03695106 6.34587049 -26.44697409 8.46592227 -27.8125 12.5625 C-28.4725 12.5625 -29.1325 12.5625 -29.8125 12.5625 C-29.8125 30.7125 -29.8125 48.8625 -29.8125 67.5625 C-30.1425 67.5625 -30.4725 67.5625 -30.8125 67.5625 C-30.88863173 59.69716601 -30.94113448 51.83192724 -30.97729492 43.96630859 C-30.99067551 41.29100279 -31.01283385 38.61617851 -31.03881836 35.94091797 C-31.07525084 32.09336249 -31.09223828 28.24613414 -31.10546875 24.3984375 C-31.12095261 23.20447357 -31.13643646 22.01050964 -31.15238953 20.78036499 C-31.15380075 13.80057095 -30.8364544 8.87746257 -25.9453125 3.515625 C-17.61141688 -3.55359385 -10.05673262 -5.92658867 0 0 Z " fill="#ACDEF5" transform="translate(208.8125,66.4375)"/>
<path d="M0 0 C0.99 0 1.98 0 3 0 C3.1953125 1.98567708 3.390625 3.97135417 3.5859375 5.95703125 C3.92665391 8.29988142 3.92665391 8.29988142 6 11 C8.30144109 12.07136051 10.6340213 13.07989717 13 14 C13 14.99 13 15.98 13 17 C11.88625 17.28875 10.7725 17.5775 9.625 17.875 C5.99708908 18.69241329 5.99708908 18.69241329 4 21 C3.67 22.175625 3.34 23.35125 3 24.5625 C2.505 26.2640625 2.505 26.2640625 2 28 C1.34 28.33 0.68 28.66 0 29 C-0.12117187 28.37351562 -0.24234375 27.74703125 -0.3671875 27.1015625 C-0.61855469 25.87566406 -0.61855469 25.87566406 -0.875 24.625 C-1.03742188 23.81289063 -1.19984375 23.00078125 -1.3671875 22.1640625 C-1.86658932 19.81326077 -1.86658932 19.81326077 -4 18 C-6.32275177 17.59952556 -8.65739357 17.2602896 -11 17 C-11.33 16.01 -11.66 15.02 -12 14 C-11.37351563 13.76925781 -10.74703125 13.53851563 -10.1015625 13.30078125 C-5.01887608 11.42581902 -5.01887608 11.42581902 -1.5 7.5625 C-1.335 6.716875 -1.17 5.87125 -1 5 C-0.79375 4.071875 -0.5875 3.14375 -0.375 2.1875 C-0.25125 1.465625 -0.1275 0.74375 0 0 Z M0 15 C0 15.66 0 16.32 0 17 C0.66 17 1.32 17 2 17 C2 16.34 2 15.68 2 15 C1.34 15 0.68 15 0 15 Z " fill="#E9FAFC" transform="translate(222,40)"/>
<path d="M0 0 C1.32 0.99 2.64 1.98 4 3 C4 3.66 4 4.32 4 5 C3.34 5 2.68 5 2 5 C2.0707373 5.58338135 2.14147461 6.1667627 2.21435547 6.76782227 C3.48668875 18.15285723 3.13062081 29.56222725 3 41 C2.99274902 42.22380371 2.98549805 43.44760742 2.97802734 44.70849609 C2.94975985 48.34829501 2.88602804 51.98586202 2.8125 55.625 C2.80404053 57.30323853 2.80404053 57.30323853 2.79541016 59.01538086 C2.60635431 65.88458396 1.59947112 70.74368961 -3 76 C-8.52291003 81.06825955 -13.59426733 81.65898482 -20.9921875 81.3671875 C-24.53803884 80.93431734 -27.09382352 80.09890524 -30 78 C-30.33 77.34 -30.66 76.68 -31 76 C-29.8553125 76.4640625 -29.8553125 76.4640625 -28.6875 76.9375 C-22.7375057 79.28982333 -16.90191599 80.26353991 -10.671875 78.24609375 C-6.93673843 76.48227926 -3.94559527 74.77674376 -2 71 C-1.28566879 68.35065178 -1.28566879 68.35065178 -1 66 C-0.34 66 0.32 66 1 66 C0.90771214 58.809822 0.80040371 51.619981 0.68261719 44.43017578 C0.64431866 41.98393855 0.60946736 39.53764484 0.578125 37.09130859 C0.53249395 33.57629194 0.47449543 30.06166445 0.4140625 26.546875 C0.40251129 25.4519574 0.39096008 24.35703979 0.37905884 23.22894287 C0.35918915 22.20818665 0.33931946 21.18743042 0.31884766 20.13574219 C0.30552399 19.23861511 0.29220032 18.34148804 0.2784729 17.41717529 C-0.01609485 14.86029498 -0.84659277 13.26768601 -2 11 C-1.67 10.34 -1.34 9.68 -1 9 C-0.67 9.33 -0.34 9.66 0 10 C0 6.7 0 3.4 0 0 Z " fill="#A4D9F5" transform="translate(114,123)"/>
<path d="M0 0 C3.09119363 0.69551857 4.64843512 1.62418927 6.8125 3.9375 C8.60800078 8.56800202 8.23208546 13.09182224 8 18 C-2.62286188 9.3167056 -2.62286188 9.3167056 -3.4375 4.3125 C-3.293125 3.549375 -3.14875 2.78625 -3 2 C-2.01 1.34 -1.02 0.68 0 0 Z " fill="#0B5CA1" transform="translate(107,116)"/>
<path d="M0 0 C0.495 0.99 0.495 0.99 1 2 C-5.70526426 11.70215085 -14.51784442 18.6671481 -26.1652832 21.53271484 C-31.76768719 22.45623575 -37.48008235 22.26529986 -43.14672852 22.29516602 C-44.67221332 22.30670917 -46.197657 22.32719805 -47.72290039 22.35668945 C-49.93924092 22.39948149 -52.15439086 22.41554595 -54.37109375 22.42578125 C-55.69036865 22.44036377 -57.00964355 22.45494629 -58.36889648 22.4699707 C-62.75976448 21.90166432 -64.56568575 20.68597602 -68 18 C-65 18 -65 18 -63.15454102 18.9855957 C-60.46825113 20.25035882 -58.49000558 20.24319689 -55.52734375 20.23046875 C-54.46193359 20.22853516 -53.39652344 20.22660156 -52.29882812 20.22460938 C-50.6349707 20.20624023 -50.6349707 20.20624023 -48.9375 20.1875 C-47.85533203 20.18685547 -46.77316406 20.18621094 -45.65820312 20.18554688 C-31.36677203 20.25758715 -31.36677203 20.25758715 -17.875 16.1875 C-16.23144531 15.43533203 -16.23144531 15.43533203 -14.5546875 14.66796875 C-11.85662092 13.25765021 -11.85662092 13.25765021 -11.1328125 10.80078125 C-11.08898437 10.20652344 -11.04515625 9.61226562 -11 9 C-10.01 9 -9.02 9 -8 9 C-7.67 8.01 -7.34 7.02 -7 6 C-5.34467377 4.98133771 -3.67739862 3.98189187 -2 3 C-1.34 2.01 -0.68 1.02 0 0 Z " fill="#CDE1ED" transform="translate(211,182)"/>
<path d="M0 0 C0.33 0 0.66 0 1 0 C1.87896977 5.0540762 2.06146869 9.83173294 1.9375 14.9609375 C1.76680252 16.99517294 1.76680252 16.99517294 3 18 C3.08758003 19.99964982 3.10696576 22.0023611 3.09765625 24.00390625 C3.09443359 25.21884766 3.09121094 26.43378906 3.08789062 27.68554688 C3.07951172 28.96494141 3.07113281 30.24433594 3.0625 31.5625 C3.05798828 32.84576172 3.05347656 34.12902344 3.04882812 35.45117188 C3.03699545 38.63416022 3.02051068 41.81705762 3 45 C2.34 45 1.68 45 1 45 C0.67 45.66 0.34 46.32 0 47 C0 31.49 0 15.98 0 0 Z " fill="#13ADF9" transform="translate(76,136)"/>
<path d="M0 0 C0.99 0 1.98 0 3 0 C3.144375 1.216875 3.28875 2.43375 3.4375 3.6875 C4.0022265 8.38414109 4.0022265 8.38414109 5 13 C5.66 13.33 6.32 13.66 7 14 C4.03 14 1.06 14 -2 14 C-1.67 15.32 -1.34 16.64 -1 18 C-5.455 17.01 -5.455 17.01 -10 16 C-10 15.01 -10 14.02 -10 13 C-8.88625 12.608125 -7.7725 12.21625 -6.625 11.8125 C-3.89008809 10.63803178 -3.16536369 10.2856282 -1.625 7.625 C-1.02130991 5.08950161 -0.44043848 2.56922444 0 0 Z " fill="#D2F5FA" transform="translate(222,40)"/>
<path d="M0 0 C0.33 0 0.66 0 1 0 C1 10.23 1 20.46 1 31 C0.67 31 0.34 31 0 31 C-2.00252888 25.17518385 -2.30407905 19.94596606 -2.25 13.8125 C-2.25773437 12.92369141 -2.26546875 12.03488281 -2.2734375 11.11914062 C-2.27085938 10.26126953 -2.26828125 9.40339844 -2.265625 8.51953125 C-2.26336914 7.74714111 -2.26111328 6.97475098 -2.25878906 6.17895508 C-1.97030724 3.74999259 -1.20815838 2.110078 0 0 Z " fill="#1ECBFD" transform="translate(78,81)"/>
<path d="M0 0 C4.61513112 1.31860889 8.09897612 3.21355437 12 6 C11.01 6.495 11.01 6.495 10 7 C10.30035156 7.62648437 10.60070312 8.25296875 10.91015625 8.8984375 C11.29042969 9.71570313 11.67070312 10.53296875 12.0625 11.375 C12.44535156 12.18710938 12.82820312 12.99921875 13.22265625 13.8359375 C13.60744141 14.90714844 13.60744141 14.90714844 14 16 C13.67 16.66 13.34 17.32 13 18 C10.82946228 15.19046806 8.66422709 12.37689511 6.5 9.5625 C5.87996094 8.76005859 5.25992188 7.95761719 4.62109375 7.13085938 C4.03457031 6.36708984 3.44804688 5.60332031 2.84375 4.81640625 C2.02680664 3.75595093 2.02680664 3.75595093 1.19335938 2.67407227 C0 1 0 1 0 0 Z " fill="#61BAF2" transform="translate(118,128)"/>
<path d="M0 0 C1.18851563 0.00902344 2.37703125 0.01804687 3.6015625 0.02734375 C4.51679688 0.03894531 5.43203125 0.05054687 6.375 0.0625 C6.375 0.3925 6.375 0.7225 6.375 1.0625 C5.71113281 1.17207031 5.04726562 1.28164062 4.36328125 1.39453125 C-3.61645699 2.82738936 -8.04171914 5.02652069 -13.625 11.0625 C-14.285 12.0525 -14.945 13.0425 -15.625 14.0625 C-16.0625 11.5 -16.0625 11.5 -15.625 8.0625 C-10.95830555 2.0362174 -7.59740646 -0.07448438 0 0 Z " fill="#6BE5FA" transform="translate(195.625,64.9375)"/>
<path d="M0 0 C1.75 0.9375 1.75 0.9375 2.75 3.9375 C3.41 4.2675 4.07 4.5975 4.75 4.9375 C1.78 4.9375 -1.19 4.9375 -4.25 4.9375 C-3.92 6.2575 -3.59 7.5775 -3.25 8.9375 C-5.25 7.5625 -5.25 7.5625 -7.25 5.9375 C-7.25 5.2775 -7.25 4.6175 -7.25 3.9375 C-3.11111111 -0.08641975 -3.11111111 -0.08641975 0 0 Z " fill="#30D3FC" transform="translate(224.25,49.0625)"/>
<path d="M0 0 C7.17659511 1.05054214 13.24834617 5.62856523 18 11 C17.67 11.66 17.34 12.32 17 13 C15.49428343 11.88266271 13.99555708 10.75589965 12.5 9.625 C11.6646875 8.99851562 10.829375 8.37203125 9.96875 7.7265625 C9.3190625 7.15679687 8.669375 6.58703125 8 6 C8 5.34 8 4.68 8 4 C5.03 3.505 5.03 3.505 2 3 C2 2.34 2 1.68 2 1 C1.34 0.67 0.68 0.34 0 0 Z " fill="#9EEBF8" transform="translate(112,65)"/>
<path d="M0 0 C0.33 0 0.66 0 1 0 C1.25271739 5.55978261 1.25271739 5.55978261 0.03125 7.6875 C-1.48966297 11.09803212 -1.46908588 14.57302532 -1.625 18.25 C-1.66367188 18.99507812 -1.70234375 19.74015625 -1.7421875 20.5078125 C-1.83605108 22.3381524 -1.91909718 24.16904143 -2 26 C-2.33 26 -2.66 26 -3 26 C-3.08774066 22.79184155 -3.14063706 19.58399538 -3.1875 16.375 C-3.21263672 15.47136719 -3.23777344 14.56773438 -3.26367188 13.63671875 C-3.32221524 8.28975851 -2.94917714 4.65985469 0 0 Z " fill="#92D2F1" transform="translate(78,75)"/>
<path d="M0 0 C0.33 0.66 0.66 1.32 1 2 C-0.04541151 3.49129308 -1.11208814 4.96769402 -2.1875 6.4375 C-2.77917969 7.26121094 -3.37085938 8.08492187 -3.98046875 8.93359375 C-6.31932973 11.32674163 -7.7220036 11.68861865 -11 12 C-11 11.01 -11 10.02 -11 9 C-10.01 9 -9.02 9 -8 9 C-7.67 8.01 -7.34 7.02 -7 6 C-5.34467377 4.98133771 -3.67739862 3.98189187 -2 3 C-1.34 2.01 -0.68 1.02 0 0 Z " fill="#87D2FA" transform="translate(211,182)"/>
<path d="M0 0 C2.64 0.99 5.28 1.98 8 3 C8 3.66 8 4.32 8 5 C5.03 5.66 2.06 6.32 -1 7 C-1.33 5.68 -1.66 4.36 -2 3 C-1.34 2.67 -0.68 2.34 0 2 C0 1.34 0 0.68 0 0 Z " fill="#BDF2F8" transform="translate(227,51)"/>
<path d="M0 0 C0.33 0.99 0.66 1.98 1 3 C-1.10078511 6.07614963 -2.88621595 7.92414397 -6 10 C-8.1875 9.625 -8.1875 9.625 -10 9 C-7 7 -7 7 -4 7 C-4 5.35 -4 3.7 -4 2 C-2.68 1.34 -1.36 0.68 0 0 Z " fill="#1CAAFC" transform="translate(112,191)"/>
<path d="M0 0 C0.99 0 1.98 0 3 0 C4 7.625 4 7.625 4 11 C2.68 10.34 1.36 9.68 0 9 C0 6.03 0 3.06 0 0 Z " fill="#98D5E6" transform="translate(222,40)"/>
<path d="M0 0 C3.77545388 1.09068668 6.47043472 1.9083091 9 5 C8.34 5 7.68 5 7 5 C7.33 6.65 7.66 8.3 8 10 C4.71211176 6.88983545 2.16264012 3.98381075 0 0 Z " fill="#7BC7F6" transform="translate(118,128)"/>
<path d="M0 0 C1.32 0.99 2.64 1.98 4 3 C4 3.66 4 4.32 4 5 C3.34 5 2.68 5 2 5 C2 7.64 2 10.28 2 13 C1.34 13 0.68 13 0 13 C-0.33 13.66 -0.66 14.32 -1 15 C-1.33 13.02 -1.66 11.04 -2 9 C-1.01 9.495 -1.01 9.495 0 10 C0 6.7 0 3.4 0 0 Z " fill="#7DBDE1" transform="translate(114,123)"/>
<path d="M0 0 C0.99 0 1.98 0 3 0 C3.29296875 5.95703125 3.29296875 5.95703125 3 8 C2.01 8.99 1.02 9.98 0 11 C0 7.37 0 3.74 0 0 Z " fill="#98EBF9" transform="translate(222,58)"/>
<path d="M0 0 C0.33 0 0.66 0 1 0 C1 4.29 1 8.58 1 13 C-2 9 -2 9 -2.109375 6.89453125 C-1.11111111 1.11111111 -1.11111111 1.11111111 0 0 Z " fill="#26D4FE" transform="translate(78,81)"/>
<path d="M0 0 C0.33 0 0.66 0 1 0 C1 1.65 1 3.3 1 5 C2.32 5 3.64 5 5 5 C5 5.66 5 6.32 5 7 C4.01 7.33 3.02 7.66 2 8 C1.01 9.485 1.01 9.485 0 11 C-0.33 10.01 -0.66 9.02 -1 8 C-1.66 7.67 -2.32 7.34 -3 7 C-3 6.34 -3 5.68 -3 5 C-2.01 5 -1.02 5 0 5 C0 3.35 0 1.7 0 0 Z " fill="#0F5BAE" transform="translate(89,140)"/>
<path d="M0 0 C0.33 0 0.66 0 1 0 C1.02689449 2.95839355 1.04678741 5.91654427 1.0625 8.875 C1.07087891 9.71675781 1.07925781 10.55851563 1.08789062 11.42578125 C1.09111328 12.23144531 1.09433594 13.03710938 1.09765625 13.8671875 C1.10289307 14.61081543 1.10812988 15.35444336 1.11352539 16.12060547 C1 18 1 18 0 20 C-0.66 20 -1.32 20 -2 20 C-2 18.68 -2 17.36 -2 16 C-1.34 16 -0.68 16 0 16 C0 10.72 0 5.44 0 0 Z " fill="#7BD5FD" transform="translate(115,173)"/>
<path d="M0 0 C0.99 0.33 1.98 0.66 3 1 C2.51789063 1.47050781 2.03578125 1.94101563 1.5390625 2.42578125 C0.59160156 3.35970703 0.59160156 3.35970703 -0.375 4.3125 C-1.00148438 4.92738281 -1.62796875 5.54226562 -2.2734375 6.17578125 C-4.18086607 8.08812528 -4.18086607 8.08812528 -6 11 C-6.375 8.875 -6.375 8.875 -6 6 C-4.20659643 3.76086748 -2.16547337 1.87545461 0 0 Z " fill="#3AE0FB" transform="translate(85,69)"/>
<path d="M0 0 C3 1 3 1 4.75 4.3125 C5.97848812 7.93653994 6.10235591 8.6258971 5 12 C4.3490741 10.75264433 3.70448331 9.50198168 3.0625 8.25 C2.70285156 7.55390625 2.34320313 6.8578125 1.97265625 6.140625 C1.04441818 4.09775567 0.46833422 2.18884624 0 0 Z " fill="#91ECFA" transform="translate(212,72)"/>
<path d="M0 0 C0.66 0 1.32 0 2 0 C2 2.64 2 5.28 2 8 C1.01 7.34 0.02 6.68 -1 6 C-1.25 3.4375 -1.25 3.4375 -1 1 C-0.67 0.67 -0.34 0.34 0 0 Z " fill="#075190" transform="translate(113,126)"/>
<path d="M0 0 C2.96404505 2.80804268 5.44499019 5.18315774 7 9 C4.0625 7.875 4.0625 7.875 1 6 C0.125 2.8125 0.125 2.8125 0 0 Z " fill="#95E7F9" transform="translate(151,105)"/>
<path d="M0 0 C0.33 0.66 0.66 1.32 1 2 C3.02463255 2.65213292 3.02463255 2.65213292 5 3 C3.35 3 1.7 3 0 3 C0.33 4.32 0.66 5.64 1 7 C-1 5.625 -1 5.625 -3 4 C-3 3.34 -3 2.68 -3 2 C-2.01 1.34 -1.02 0.68 0 0 Z " fill="#66EDFD" transform="translate(220,51)"/>
<path d="M0 0 C2.5 2.3125 2.5 2.3125 5 5 C5 5.99 5 6.98 5 8 C2.5 6.25 2.5 6.25 0 4 C0 2.68 0 1.36 0 0 Z " fill="#98EDFB" transform="translate(130,78)"/>
<path d="M0 0 C0.33 0 0.66 0 1 0 C1.36923077 5.41538462 1.36923077 5.41538462 -0.5 8.375 C-0.995 8.91125 -1.49 9.4475 -2 10 C-1.85950482 8.52031676 -1.71245174 7.04125484 -1.5625 5.5625 C-1.48128906 4.73878906 -1.40007812 3.91507812 -1.31640625 3.06640625 C-1 1 -1 1 0 0 Z " fill="#79E6F9" transform="translate(78,75)"/>
</svg>
